<!-- Generated by IcoMoon.io -->
<svg version="1.1" xmlns="http://www.w3.org/2000/svg" width="32" height="32" viewBox="0 0 32 32">
<title>cart</title>
<path fill="none" stroke="#fff" stroke-linejoin="round" stroke-linecap="round" stroke-miterlimit="4" stroke-width="2.3704" d="M10.657 28.446c0.736 0 1.332-0.579 1.332-1.293s-0.596-1.293-1.332-1.293-1.332 0.579-1.332 1.293c0 0.714 0.596 1.293 1.332 1.293z"></path>
<path fill="none" stroke="#fff" stroke-linejoin="round" stroke-linecap="round" stroke-miterlimit="4" stroke-width="2.3704" d="M25.311 28.446c0.736 0 1.332-0.579 1.332-1.293s-0.596-1.293-1.332-1.293-1.332 0.579-1.332 1.293c0 0.714 0.596 1.293 1.332 1.293z"></path>
<path fill="none" stroke="#fff" stroke-linejoin="round" stroke-linecap="round" stroke-miterlimit="4" stroke-width="2.3704" d="M2.732 2.65h2.664l3.544 16.059c0.13 0.588 0.467 1.114 0.953 1.487s1.091 0.57 1.711 0.556h13.029c0.606-0.001 1.194-0.203 1.667-0.572s0.801-0.884 0.931-1.458l2.198-9.607h-22.607"></path>
</svg>
